<svg width="160" height="24" viewBox="0 0 160 24" fill="none" xmlns="http://www.w3.org/2000/svg">
<path d="M8.808 3.4C10.544 3.4 12.0467 3.68933 13.316 4.268C14.604 4.84667 15.5933 5.668 16.284 6.732C16.9747 7.796 17.32 9.056 17.32 10.512C17.32 11.9493 16.9747 13.2093 16.284 14.292C15.5933 15.356 14.604 16.1773 13.316 16.756C12.0467 17.316 10.544 17.596 8.808 17.596H4.86V23H0.324V3.4H8.808ZM8.556 13.9C9.91867 13.9 10.9547 13.6107 11.664 13.032C12.3733 12.4347 12.728 11.5947 12.728 10.512C12.728 9.41067 12.3733 8.57067 11.664 7.992C10.9547 7.39467 9.91867 7.096 8.556 7.096H4.86V13.9H8.556ZM19.8304 7.936H24.1984V23H19.8304V7.936ZM22.0144 5.836C21.2117 5.836 20.5584 5.60267 20.0544 5.136C19.5504 4.66933 19.2984 4.09067 19.2984 3.4C19.2984 2.70933 19.5504 2.13067 20.0544 1.664C20.5584 1.19733 21.2117 0.963998 22.0144 0.963998C22.817 0.963998 23.4704 1.188 23.9744 1.636C24.4784 2.084 24.7304 2.644 24.7304 3.316C24.7304 4.044 24.4784 4.65067 23.9744 5.136C23.4704 5.60267 22.817 5.836 22.0144 5.836ZM35.1123 23.224C33.5069 23.224 32.0602 22.8973 30.7722 22.244C29.5029 21.572 28.5042 20.648 27.7762 19.472C27.0669 18.296 26.7122 16.9613 26.7122 15.468C26.7122 13.9747 27.0669 12.64 27.7762 11.464C28.5042 10.288 29.5029 9.37333 30.7722 8.72C32.0602 8.048 33.5069 7.712 35.1123 7.712C36.6989 7.712 38.0803 8.048 39.2563 8.72C40.4509 9.37333 41.3189 10.316 41.8603 11.548L38.4723 13.368C37.6883 11.9867 36.5589 11.296 35.0843 11.296C33.9456 11.296 33.0029 11.6693 32.2562 12.416C31.5096 13.1627 31.1363 14.18 31.1363 15.468C31.1363 16.756 31.5096 17.7733 32.2562 18.52C33.0029 19.2667 33.9456 19.64 35.0843 19.64C36.5776 19.64 37.7069 18.9493 38.4723 17.568L41.8603 19.416C41.3189 20.6107 40.4509 21.544 39.2563 22.216C38.0803 22.888 36.6989 23.224 35.1123 23.224ZM50.3138 17.092L48.2138 19.164V23H43.8458V2.224H48.2138V13.984L54.5978 7.936H59.8058L53.5338 14.32L60.3658 23H55.0738L50.3138 17.092ZM76.1679 23.336C74.6186 23.336 73.1159 23.1307 71.6599 22.72C70.2226 22.2907 69.0652 21.74 68.1879 21.068L69.7279 17.652C70.5679 18.268 71.5666 18.7627 72.7239 19.136C73.8812 19.5093 75.0386 19.696 76.1959 19.696C77.4839 19.696 78.4359 19.5093 79.0519 19.136C79.6679 18.744 79.9759 18.2307 79.9759 17.596C79.9759 17.1293 79.7892 16.7467 79.4159 16.448C79.0612 16.1307 78.5946 15.8787 78.0159 15.692C77.4559 15.5053 76.6906 15.3 75.7199 15.076C74.2266 14.7213 73.0039 14.3667 72.0519 14.012C71.0999 13.6573 70.2786 13.088 69.5879 12.304C68.9159 11.52 68.5799 10.4747 68.5799 9.168C68.5799 8.02933 68.8879 7.00267 69.5039 6.088C70.1199 5.15467 71.0439 4.41733 72.2759 3.876C73.5266 3.33467 75.0479 3.064 76.8399 3.064C78.0906 3.064 79.3132 3.21333 80.5079 3.512C81.7026 3.81067 82.7479 4.24 83.6439 4.8L82.2439 8.244C80.4332 7.21733 78.6226 6.704 76.8119 6.704C75.5426 6.704 74.5999 6.90933 73.9839 7.32C73.3866 7.73067 73.0879 8.272 73.0879 8.944C73.0879 9.616 73.4332 10.12 74.1239 10.456C74.8332 10.7733 75.9066 11.0907 77.3439 11.408C78.8372 11.7627 80.0599 12.1173 81.0119 12.472C81.9639 12.8267 82.7759 13.3867 83.4479 14.152C84.1386 14.9173 84.4839 15.9533 84.4839 17.26C84.4839 18.38 84.1666 19.4067 83.5319 20.34C82.9159 21.2547 81.9826 21.9827 80.7319 22.524C79.4812 23.0653 77.9599 23.336 76.1679 23.336ZM96.5714 22.272C96.142 22.5893 95.61 22.832 94.9754 23C94.3594 23.1493 93.706 23.224 93.0154 23.224C91.2234 23.224 89.8327 22.7667 88.8434 21.852C87.8727 20.9373 87.3874 19.5933 87.3874 17.82V11.632H85.0634V8.272H87.3874V4.604H91.7554V8.272H95.5074V11.632H91.7554V17.764C91.7554 18.3987 91.914 18.8933 92.2314 19.248C92.5674 19.584 93.034 19.752 93.6314 19.752C94.322 19.752 94.91 19.5653 95.3954 19.192L96.5714 22.272ZM113.779 7.936V23H109.635V21.208C109.057 21.8613 108.366 22.3653 107.563 22.72C106.761 23.056 105.893 23.224 104.959 23.224C102.981 23.224 101.413 22.6547 100.255 21.516C99.098 20.3773 98.5193 18.688 98.5193 16.448V7.936H102.887V15.804C102.887 18.2307 103.905 19.444 105.939 19.444C106.985 19.444 107.825 19.108 108.459 18.436C109.094 17.7453 109.411 16.728 109.411 15.384V7.936H113.779ZM132.75 2.224V23H128.578V21.264C127.495 22.5707 125.927 23.224 123.874 23.224C122.455 23.224 121.167 22.9067 120.01 22.272C118.871 21.6373 117.975 20.732 117.322 19.556C116.669 18.38 116.342 17.0173 116.342 15.468C116.342 13.9187 116.669 12.556 117.322 11.38C117.975 10.204 118.871 9.29867 120.01 8.664C121.167 8.02933 122.455 7.712 123.874 7.712C125.797 7.712 127.299 8.31867 128.382 9.532V2.224H132.75ZM124.63 19.64C125.731 19.64 126.646 19.2667 127.374 18.52C128.102 17.7547 128.466 16.7373 128.466 15.468C128.466 14.1987 128.102 13.1907 127.374 12.444C126.646 11.6787 125.731 11.296 124.63 11.296C123.51 11.296 122.586 11.6787 121.858 12.444C121.13 13.1907 120.766 14.1987 120.766 15.468C120.766 16.7373 121.13 17.7547 121.858 18.52C122.586 19.2667 123.51 19.64 124.63 19.64ZM136.373 7.936H140.741V23H136.373V7.936ZM138.557 5.836C137.754 5.836 137.101 5.60267 136.597 5.136C136.093 4.66933 135.841 4.09067 135.841 3.4C135.841 2.70933 136.093 2.13067 136.597 1.664C137.101 1.19733 137.754 0.963998 138.557 0.963998C139.359 0.963998 140.013 1.188 140.517 1.636C141.021 2.084 141.273 2.644 141.273 3.316C141.273 4.044 141.021 4.65067 140.517 5.136C140.013 5.60267 139.359 5.836 138.557 5.836ZM151.543 23.224C149.956 23.224 148.528 22.8973 147.259 22.244C146.008 21.572 145.028 20.648 144.319 19.472C143.609 18.296 143.255 16.9613 143.255 15.468C143.255 13.9747 143.609 12.64 144.319 11.464C145.028 10.288 146.008 9.37333 147.259 8.72C148.528 8.048 149.956 7.712 151.543 7.712C153.129 7.712 154.548 8.048 155.799 8.72C157.049 9.37333 158.029 10.288 158.739 11.464C159.448 12.64 159.803 13.9747 159.803 15.468C159.803 16.9613 159.448 18.296 158.739 19.472C158.029 20.648 157.049 21.572 155.799 22.244C154.548 22.8973 153.129 23.224 151.543 23.224ZM151.543 19.64C152.663 19.64 153.577 19.2667 154.287 18.52C155.015 17.7547 155.379 16.7373 155.379 15.468C155.379 14.1987 155.015 13.1907 154.287 12.444C153.577 11.6787 152.663 11.296 151.543 11.296C150.423 11.296 149.499 11.6787 148.771 12.444C148.043 13.1907 147.679 14.1987 147.679 15.468C147.679 16.7373 148.043 17.7547 148.771 18.52C149.499 19.2667 150.423 19.64 151.543 19.64Z" fill="black"/>
</svg>
